<svg width="25" height="28" xmlns="http://www.w3.org/2000/svg" xmlns:xlink="http://www.w3.org/1999/xlink"><defs><path d="M7.82923118 4.31248086l3.16698462 1.90477501-.0003665 6.57575693L13 16H8l1.99584933-3.1949872.00036649-6.02226867-2.68239219-1.61331808.51540755-.85694519zM10.5 13.8867962L9.80424764 15h1.39150476L10.5 13.8867962zM8.0180589.44101276l8.0988562 4.05848652-2.1170658 1.05851348L14 10.5802039l-2.0001507.9918089v-1.117L13 9.95987955l-.0001507-3.90186679-1 .499v-1.117l1.8832356-.94139243-5.8661438-2.93963309-5.89779043 2.94075119L8 7.44095297l.99984933-.50094021v1.119L8 8.55904703 2.99984933 6.05801276 3 9.95987955l5 2.47933885.99984933-.4962056v1.116L8 13.5554105l-6-2.9752066-.00015067-5.02219114-2.119-1.05963158L8.0180589.44101276z" id="a"/></defs><g fill="none" fill-rule="evenodd"><path d="M12.5 0c-.3891941 0-.7554945.09092754-1.0989011.29551451L1.0989011 6.20580475C.41208791 6.5922468 0 7.31966714 0 8.09255125V19.9131317c0 .7728841.41208791 1.5003045 1.0989011 1.8867465l10.3021978 5.9102903c.6639194.386442 1.5338828.386442 2.1978022 0l10.3021978-5.9102903C24.5879121 21.4134362 25 20.6860158 25 19.9131317V8.09255125c0-.77288411-.4120879-1.50030445-1.0989011-1.8867465L13.5989011.29551451C13.2554945.11365943 12.8891941 0 12.5 0z" fill="#EDF1FD"/><g opacity=".39999998" transform="translate(5 6)"><mask id="b" fill="#fff"><use xlink:href="#a"/></mask><use fill="#000" fill-rule="nonzero" xlink:href="#a"/><g mask="url(#b)" fill="#204ECF"><path d="M0 0h16v16H0z"/></g></g></g></svg>